{"title":"Back to the Future 1985 1080p BrRip x264 (ULTRAHD).mp4","uid":12169355,"size":4768968922,"categoryP":"video","categoryS":"hd___movies","magnet":"?xt=urn:btih:b7eb4df1af210b594aebd113f5a92d6b97838267&amp;dn=Back+to+the+Future+1985+1080p+BrRip+x264+%28ULTRAHD%29.mp4&amp;tr=udp%3A%2F%2Ftracker.openbittorrent.com%3A80&amp;tr=udp%3A%2F%2Fopen.demonii.com%3A1337&amp;tr=udp%3A%2F%2Ftracker.coppersurfer.tk%3A6969&amp;tr=udp%3A%2F%2Fexodus.desync.com%3A6969","seeders":0,"leechers":0,"uploader":null,"files":1,"time":1438108355,"description":"Format                      : MPEG-4\nFormat profile              : Base Media / Version 2\nCodec ID                    : mp42\nFile size                   : 4.44 GiB\nDuration                    : 1h 56mn\nOverall bit rate            : 5 481 Kbps\nEncoded date                : UTC 2015-07-27 12:47:44\nTagged date                 : UTC 2015-07-27 12:47:44\nWriting library             : AVS \n\nVideo\nID                          : 1\nFormat                      : AVC\nFormat/Info                 : Advanced Video Codec\nFormat profile              : &lt;a class=&quot;__cf_email__&quot; href=&quot;/cdn-cgi/l/email-protection&quot; data-cfemail=&quot;eaa78b8384aaa6dec4d8&quot;&gt;[email&amp;#160;protected]&lt;/a&gt;&lt;script data-cfhash='f9e31' type=&quot;text/javascript&quot;&gt;\n/* &lt;![CDATA[ */!function(){try{var t=&quot;currentScript&quot;in document?document.currentScript:function(){for(var t=document.getElementsByTagName(&quot;script&quot;),e=t.length;e--;)if(t[e].getAttribute(&quot;data-cfhash&quot;))return t[e]}();if(t&amp;&amp;t.previousSibling){var e,r,n,i,c=t.previousSibling,a=c.getAttribute(&quot;data-cfemail&quot;);if(a){for(e=&quot;&quot;,r=parseInt(a.substr(0,2),16),n=2;a.length-n;n+=2)i=parseInt(a.substr(n,2),16)^r,e+=String.fromCharCode(i);e=document.createTextNode(e),c.parentNode.replaceChild(e,c)}t.parentNode.removeChild(t);}}catch(u){}}()/* ]]&gt; */&lt;/script&gt;\nFormat settings, CABAC      : Yes\nFormat settings, ReFrames   : 3 frames\nCodec ID                    : avc1\nCodec ID/Info               : Advanced Video Coding\nDuration                    : 1h 56mn\nSource duration             : 1h 56mn\nBit rate                    : 4 900 Kbps\nWidth                       : 1 920 pixels\nHeight                      : 1 080 pixels\nDisplay aspect ratio        : 16:9\nFrame rate mode             : Constant\nFrame rate                  : 23.976 fps\nColor space                 : YUV\nChroma subsampling          : 4:2:0\nBit depth                   : 8 bits\nScan type                   : Progressive\nBits/(Pixel*Frame)          : 0.099\nStream size                 : 3.97 GiB (89%)\nSource stream size          : 3.97 GiB (89%)\nLanguage                    : English\nEncoded date                : UTC 2015-07-27 12:47:44\nTagged date                 : UTC 2015-07-27 12:47:44\nColor primaries             : BT.709\nTransfer characteristics    : BT.709\nMatrix coefficients         : BT.709\n\nAudio\nID                          : 2\nFormat                      : AAC\nFormat/Info                 : Advanced Audio Codec\nFormat profile              : LC\nCodec ID                    : 40\nDuration                    : 1h 56mn\nBit rate mode               : Constant\nBit rate                    : 576 Kbps\nChannel(s)                  : 6 channels\nChannel positions           : Front: L C R, Side: L R, LFE\nSampling rate               : 48.0 KHz\nCompression mode            : Lossy\nStream size                 : 476 MiB (10%)\nLanguage                    : English\nEncoded date                : UTC 2015-07-27 12:47:44\nTagged date                 : UTC 2015-07-27 12:47:44","torrent":{"xt":"urn:btih:b7eb4df1af210b594aebd113f5a92d6b97838267","amp;dn":"Back+to+the+Future+1985+1080p+BrRip+x264+%28ULTRAHD%29.mp4","amp;tr":["udp%3A%2F%2Ftracker.openbittorrent.com%3A80","udp%3A%2F%2Fopen.demonii.com%3A1337","udp%3A%2F%2Ftracker.coppersurfer.tk%3A6969","udp%3A%2F%2Fexodus.desync.com%3A6969"],"infoHash":"b7eb4df1af210b594aebd113f5a92d6b97838267","infoHashBuffer":{"type":"Buffer","data":[183,235,77,241,175,33,11,89,74,235,209,19,245,169,45,107,151,131,130,103]},"announce":[],"urlList":[]}}